<svg width="56" height="56" viewBox="0 0 56 56" fill="none" xmlns="http://www.w3.org/2000/svg">
<g clip-path="url(#clip0_13762_16150)">
<path d="M7 28C7 30.7578 7.54318 33.4885 8.59853 36.0364C9.65388 38.5842 11.2007 40.8992 13.1508 42.8492C15.1008 44.7993 17.4158 46.3461 19.9636 47.4015C22.5115 48.4568 25.2422 49 28 49C30.7578 49 33.4885 48.4568 36.0364 47.4015C38.5842 46.3461 40.8992 44.7993 42.8492 42.8492C44.7993 40.8992 46.3461 38.5842 47.4015 36.0364C48.4568 33.4885 49 30.7578 49 28C49 25.2422 48.4568 22.5115 47.4015 19.9636C46.3461 17.4158 44.7993 15.1008 42.8492 13.1508C40.8992 11.2007 38.5842 9.65388 36.0364 8.59853C33.4885 7.54318 30.7578 7 28 7C25.2422 7 22.5115 7.54318 19.9636 8.59853C17.4158 9.65388 15.1008 11.2007 13.1508 13.1508C11.2007 15.1008 9.65388 17.4158 8.59853 19.9636C7.54318 22.5115 7 25.2422 7 28Z" stroke="#11A851" stroke-width="3" stroke-linecap="round" stroke-linejoin="round"/>
<path d="M21 27.9987L25.6667 32.6654L35 23.332" stroke="#11A851" stroke-width="3" stroke-linecap="round" stroke-linejoin="round"/>
</g>
<defs>
<clipPath id="clip0_13762_16150">
<rect width="56" height="56" fill="white"/>
</clipPath>
</defs>
</svg>
