<svg width="49" height="49" viewBox="0 0 49 49" fill="none" xmlns="http://www.w3.org/2000/svg">
<path d="M47.1022 1.30078L30.8522 46.3008C30.7425 46.5401 30.5664 46.743 30.3449 46.8852C30.1233 47.0274 29.8655 47.103 29.6022 47.103C29.3389 47.103 29.0812 47.0274 28.8596 46.8852C28.638 46.743 28.4619 46.5401 28.3522 46.3008L19.6022 28.8008L2.10223 20.0508C1.86287 19.9411 1.66004 19.765 1.51784 19.5434C1.37564 19.3218 1.30005 19.0641 1.30005 18.8008C1.30005 18.5375 1.37564 18.2797 1.51784 18.0582C1.66004 17.8366 1.86287 17.6605 2.10223 17.5508L47.1022 1.30078Z" stroke="#DC2626" stroke-width="2.6" stroke-linecap="round" stroke-linejoin="round"/>
</svg>
