<svg width="72" height="72" viewBox="0 0 72 72" fill="none" xmlns="http://www.w3.org/2000/svg">
<g clip-path="url(#clip0_751_29158)">
<path d="M36.0001 5.01001C38.8651 5.01001 41.5351 6.41101 43.1701 8.75101L43.4851 9.23101L67.8271 49.875C68.5668 51.1562 68.9693 52.6043 68.9969 54.0835C69.0244 55.5627 68.6761 57.0247 67.9845 58.3326C67.293 59.6404 66.2808 60.7514 65.0428 61.5614C63.8048 62.3715 62.3814 62.8541 60.9061 62.964L60.3211 62.988H11.6461C10.1692 62.9714 8.72058 62.5809 7.43549 61.8528C6.15039 61.1248 5.07069 60.0831 4.29718 58.8249C3.52366 57.5666 3.08155 56.1329 3.01211 54.6576C2.94267 53.1822 3.24816 51.7133 3.90007 50.388L4.19707 49.833L28.5271 9.21901C29.3061 7.93445 30.403 6.87231 31.7119 6.13507C33.0209 5.39782 34.4978 5.01034 36.0001 5.01001ZM36.0301 45L35.6491 45.021C34.9199 45.1077 34.2479 45.4589 33.7603 46.0079C33.2727 46.5569 33.0034 47.2657 33.0034 48C33.0034 48.7343 33.2727 49.4431 33.7603 49.9921C34.2479 50.5411 34.9199 50.8923 35.6491 50.979L36.0001 51L36.3811 50.979C37.1102 50.8923 37.7822 50.5411 38.2698 49.9921C38.7574 49.4431 39.0267 48.7343 39.0267 48C39.0267 47.2657 38.7574 46.5569 38.2698 46.0079C37.7822 45.4589 37.1102 45.1077 36.3811 45.021L36.0301 45ZM36.0001 24C35.2653 24.0001 34.5561 24.2699 34.007 24.7582C33.4579 25.2464 33.107 25.9193 33.0211 26.649L33.0001 27V39L33.0211 39.351C33.1078 40.0802 33.4589 40.7522 34.008 41.2398C34.557 41.7274 35.2658 41.9967 36.0001 41.9967C36.7344 41.9967 37.4432 41.7274 37.9922 41.2398C38.5412 40.7522 38.8923 40.0802 38.9791 39.351L39.0001 39V27L38.9791 26.649C38.8931 25.9193 38.5423 25.2464 37.9932 24.7582C37.4441 24.2699 36.7349 24.0001 36.0001 24Z" fill="#F97316"/>
</g>
<defs>
<clipPath id="clip0_751_29158">
<rect width="72" height="72" fill="white"/>
</clipPath>
</defs>
</svg>
